# 3ds Max Wavefront OBJ Exporter v0.97b - (c)2007 guruware
# File Created: 13.04.2016 12:26:03

mtllib window.mtl

#
# object Window
#

v  -0.6860 0.0000 43.6349
v  5.9101 0.0000 43.6349
v  5.9101 0.0000 44.7941
v  -0.6860 0.0000 44.7941
v  5.9101 60.0000 43.6349
v  -0.6860 60.0000 43.6349
v  -0.6860 60.0000 44.7941
v  5.9101 60.0000 44.7941
v  5.9101 31.3853 68.3451
v  -0.6860 31.3853 68.3451
v  -0.6860 28.6147 68.3451
v  5.9101 28.6147 68.3451
v  5.9101 31.3853 44.7941
v  5.9101 28.6147 44.7941
v  5.9101 28.6147 43.6349
v  5.9101 31.3853 43.6349
v  -0.6860 31.3853 18.3451
v  5.9101 31.3853 18.3451
v  5.9101 28.6147 18.3451
v  -0.6860 28.6147 18.3451
v  -2.9175 31.3853 43.6349
v  -2.9175 28.6147 43.6349
v  -2.9175 28.6147 44.7941
v  -2.9175 31.3853 44.7941
v  -0.6860 0.0000 21.2240
v  5.9101 0.0000 21.2240
v  5.9101 0.0000 41.3764
v  -0.6860 0.0000 41.3764
v  5.9101 0.0000 65.4662
v  -0.6860 0.0000 65.4662
v  -0.6860 0.0000 45.3139
v  5.9101 0.0000 45.3139
v  5.9101 60.0000 21.2240
v  -0.6860 60.0000 21.2240
v  -0.6860 60.0000 41.3764
v  5.9101 60.0000 41.3764
v  -0.6860 60.0000 65.4662
v  5.9101 60.0000 65.4662
v  5.9101 60.0000 45.3139
v  -0.6860 60.0000 45.3139
v  5.9101 31.3853 21.2240
v  5.9101 28.6147 21.2240
v  5.9101 28.6147 65.4662
v  5.9101 31.3853 65.4662
v  -0.6860 31.3853 65.4662
v  -0.6860 28.6147 65.4662
v  -0.6860 28.6147 21.2240
v  -0.6860 31.3853 21.2240
v  5.9101 60.0000 68.3451
v  -0.6860 60.0000 68.3451
v  -0.6860 56.5980 68.3451
v  5.9101 56.5980 68.3451
v  -0.6860 0.0000 68.3451
v  5.9101 0.0000 68.3451
v  5.9101 3.4020 68.3451
v  -0.6860 3.4020 68.3451
v  5.9101 56.5980 44.7941
v  5.9101 56.5980 43.6349
v  5.9101 3.4020 43.6349
v  5.9101 3.4020 44.7941
v  -0.6860 60.0000 18.3451
v  5.9101 60.0000 18.3451
v  5.9101 56.5980 18.3451
v  -0.6860 56.5980 18.3451
v  5.9101 0.0000 18.3451
v  -0.6860 0.0000 18.3451
v  -0.6860 3.4020 18.3451
v  5.9101 3.4020 18.3451
v  -0.6860 56.5980 43.6349
v  -0.6860 56.5980 44.7941
v  -0.6860 3.4020 44.7941
v  -0.6860 3.4020 43.6349
v  5.9101 56.5980 21.2240
v  5.9101 3.4020 21.2240
v  5.9101 3.4020 41.3764
v  5.9101 3.4020 65.4662
v  5.9101 56.5980 65.4662
v  5.9101 56.5980 45.3139
v  -0.6860 56.5980 65.4662
v  -0.6860 3.4020 65.4662
v  -0.6860 3.4020 45.3139
v  -0.6860 3.4020 21.2240
v  -0.6860 56.5980 21.2240
v  -0.6860 56.5980 41.3764
v  -0.6860 31.3853 43.6349
v  -0.6860 31.3853 44.7941
v  -0.6860 28.6147 44.7941
v  -0.6860 28.6147 43.6349
v  5.9101 28.6147 41.3764
v  5.9101 31.3853 45.3139
v  0.6558 3.4020 45.3139
v  0.6558 3.4020 65.4662
v  0.6558 28.6147 65.4662
v  0.6558 28.6147 45.3139
v  0.6558 56.5980 41.3764
v  0.6558 56.5980 21.2240
v  0.6558 31.3853 21.2240
v  0.6558 31.3853 41.3764
v  5.9101 28.6147 45.3139
v  -0.6860 31.3853 45.3139
v  -0.6860 28.6147 45.3139
v  5.9101 3.4020 45.3139
v  -0.6860 56.5980 45.3139
v  0.6558 56.5980 45.3139
v  0.6558 31.3853 45.3139
v  0.6558 31.3853 65.4662
v  0.6558 56.5980 65.4662
v  5.9101 31.3853 41.3764
v  -0.6860 28.6147 41.3764
v  -0.6860 31.3853 41.3764
v  5.9101 56.5980 41.3764
v  -0.6860 3.4020 41.3764
v  0.6558 3.4020 41.3764
v  0.6558 28.6147 41.3764
v  0.6558 28.6147 21.2240
v  0.6558 3.4020 21.2240
v  -2.0249 31.3853 43.6349
v  -2.0249 31.3853 44.7941
v  -2.0249 28.6147 43.6349
v  -2.0249 28.6147 44.7941
v  -2.1557 24.1518 43.6349
v  -2.1557 24.1518 44.7941
v  -2.7867 24.1518 44.7941
v  -2.7867 24.1518 43.6349
# 124 vertices

vn 0.0000 -1.0000 -0.0000
vn 0.0000 1.0000 -0.0000
vn 0.0000 0.0000 1.0000
vn 1.0000 0.0000 -0.0000
vn 0.0000 0.0000 -1.0000
vn -1.0000 0.0000 -0.0000
vn 0.9996 -0.0293 -0.0000
vn -0.9996 -0.0293 -0.0000
vn 0.0000 -1.0000 0.0000
# 9 vertex normals

vt 0.9447 0.7578 0.0000
vt 0.9929 0.7585 0.0000
vt 0.9928 0.7670 0.0000
vt 0.9445 0.7663 0.0000
vt 0.9927 0.7512 0.0000
vt 0.9444 0.7506 0.0000
vt 0.9445 0.7422 0.0000
vt 0.9928 0.7427 0.0000
vt 0.9804 0.7856 0.0000
vt 0.9380 0.7848 0.0000
vt 0.9383 0.7669 0.0000
vt 0.9808 0.7678 0.0000
vt 0.7801 0.2653 0.0000
vt 0.7801 0.2901 0.0000
vt 0.7697 0.2901 0.0000
vt 0.7697 0.2653 0.0000
vt 0.9410 0.7673 0.0000
vt 0.9888 0.7684 0.0000
vt 0.9883 0.7884 0.0000
vt 0.9406 0.7873 0.0000
vt 0.8838 0.6449 0.0000
vt 0.8754 0.6507 0.0000
vt 0.8728 0.6436 0.0000
vt 0.8831 0.6428 0.0000
vt 0.9477 0.5937 0.0000
vt 0.9960 0.5944 0.0000
vt 0.9939 0.7420 0.0000
vt 0.9456 0.7413 0.0000
vt 0.9907 0.9184 0.0000
vt 0.9424 0.9177 0.0000
vt 0.9445 0.7701 0.0000
vt 0.9928 0.7708 0.0000
vt 0.9906 0.9153 0.0000
vt 0.9423 0.9147 0.0000
vt 0.9442 0.7672 0.0000
vt 0.9925 0.7678 0.0000
vt 0.9463 0.5908 0.0000
vt 0.9946 0.5914 0.0000
vt 0.9928 0.7389 0.0000
vt 0.9445 0.7383 0.0000
vt 0.5428 0.2651 0.0000
vt 0.5686 0.2651 0.0000
vt 0.5686 0.2900 0.0000
vt 0.5428 0.2900 0.0000
vt 0.9915 0.2903 0.0000
vt 0.9656 0.2903 0.0000
vt 0.9656 0.2654 0.0000
vt 0.9915 0.2654 0.0000
vt 0.9195 0.7844 0.0000
vt 0.9198 0.7666 0.0000
vt 0.9197 0.7869 0.0000
vt 0.9202 0.7668 0.0000
vt 0.9767 0.9697 0.0000
vt 0.9343 0.9689 0.0000
vt 0.9347 0.9470 0.0000
vt 0.9771 0.9478 0.0000
vt 0.9421 0.5828 0.0000
vt 0.9845 0.5837 0.0000
vt 0.9841 0.6056 0.0000
vt 0.9416 0.6047 0.0000
vt 0.7803 0.0085 0.0000
vt 0.7803 0.0390 0.0000
vt 0.7699 0.0390 0.0000
vt 0.7699 0.0085 0.0000
vt 0.7696 0.5469 0.0000
vt 0.7696 0.5164 0.0000
vt 0.7800 0.5164 0.0000
vt 0.7800 0.5469 0.0000
vt 0.9457 0.5600 0.0000
vt 0.9935 0.5611 0.0000
vt 0.9929 0.5858 0.0000
vt 0.9452 0.5847 0.0000
vt 0.9836 0.9957 0.0000
vt 0.9359 0.9946 0.0000
vt 0.9364 0.9699 0.0000
vt 0.9842 0.9710 0.0000
vt 0.9195 0.7503 0.0000
vt 0.9196 0.7418 0.0000
vt 0.9196 0.7660 0.0000
vt 0.9197 0.7575 0.0000
vt 0.5429 0.0083 0.0000
vt 0.5688 0.0084 0.0000
vt 0.5688 0.0389 0.0000
vt 0.5429 0.0389 0.0000
vt 0.7493 0.5469 0.0000
vt 0.5684 0.5468 0.0000
vt 0.5685 0.5163 0.0000
vt 0.7493 0.5164 0.0000
vt 0.9913 0.5471 0.0000
vt 0.9655 0.5470 0.0000
vt 0.9655 0.5165 0.0000
vt 0.9913 0.5165 0.0000
vt 0.7850 0.0085 0.0000
vt 0.9658 0.0086 0.0000
vt 0.9658 0.0391 0.0000
vt 0.7849 0.0390 0.0000
vt 0.9157 0.9685 0.0000
vt 0.9162 0.9466 0.0000
vt 0.9175 0.9173 0.0000
vt 0.9196 0.7698 0.0000
vt 0.9150 0.9941 0.0000
vt 0.9156 0.9695 0.0000
vt 0.9174 0.9144 0.0000
vt 0.9192 0.7669 0.0000
vt 0.9542 0.6345 0.0000
vt 0.9529 0.9227 0.0000
vt 0.9396 0.9227 0.0000
vt 0.9410 0.6344 0.0000
vt 0.9495 0.9108 0.0000
vt 0.9539 0.6771 0.0000
vt 0.9646 0.6773 0.0000
vt 0.9602 0.9110 0.0000
vt 0.7494 0.2901 0.0000
vt 0.7848 0.2653 0.0000
vt 0.2743 0.3235 0.0000
vt 0.5406 0.3235 0.0000
vt 0.5406 0.6568 0.0000
vt 0.2743 0.6568 0.0000
vt 0.2743 0.9900 0.0000
vt 0.0079 0.9900 0.0000
vt 0.0079 0.6568 0.0000
vt 0.9904 0.9394 0.0000
vt 0.9421 0.9388 0.0000
vt 0.9466 0.5697 0.0000
vt 0.9949 0.5703 0.0000
vt 0.7848 0.2901 0.0000
vt 0.9781 0.9014 0.0000
vt 0.9429 0.9007 0.0000
vt 0.9479 0.6448 0.0000
vt 0.9831 0.6455 0.0000
vt 0.7846 0.5469 0.0000
vt 0.7846 0.5164 0.0000
vt 0.9916 0.0086 0.0000
vt 0.9916 0.0392 0.0000
vt 0.9196 0.7380 0.0000
vt 0.9214 0.5905 0.0000
vt 0.9172 0.9384 0.0000
vt 0.5407 0.6568 0.0000
vt 0.5407 0.9900 0.0000
vt 0.9231 0.6043 0.0000
vt 0.9473 0.5726 0.0000
vt 0.9956 0.5733 0.0000
vt 0.9904 0.9364 0.0000
vt 0.9421 0.9358 0.0000
vt 0.7495 0.2653 0.0000
vt 0.9398 0.6560 0.0000
vt 0.9750 0.6555 0.0000
vt 0.9784 0.9115 0.0000
vt 0.9432 0.9120 0.0000
vt 0.7496 0.0085 0.0000
vt 0.7496 0.0390 0.0000
vt 0.5426 0.5468 0.0000
vt 0.5426 0.5163 0.0000
vt 0.9200 0.7409 0.0000
vt 0.9221 0.5934 0.0000
vt 0.9172 0.9355 0.0000
vt 0.2743 0.6567 0.0000
vt 0.0079 0.6567 0.0000
vt 0.0079 0.3235 0.0000
vt 0.9235 0.5842 0.0000
vt 0.9861 0.6520 0.0000
vt 0.9856 0.6777 0.0000
vt 0.9651 0.6516 0.0000
vt 0.9491 0.6770 0.0000
vt 0.9496 0.6513 0.0000
vt 0.9544 0.6514 0.0000
vt 0.9800 0.6346 0.0000
vt 0.9787 0.9228 0.0000
vt 0.9337 0.9226 0.0000
vt 0.9350 0.6344 0.0000
vt 0.9446 0.9107 0.0000
vt 0.9812 0.9114 0.0000
vt 0.8893 0.6378 0.0000
vt 0.8911 0.6452 0.0000
vt 0.8856 0.6450 0.0000
vt 0.8846 0.6415 0.0000
vt 0.8853 0.6586 0.0000
vt 0.8788 0.6558 0.0000
vt 0.8699 0.6278 0.0000
vt 0.8756 0.6307 0.0000
vt 0.8722 0.6374 0.0000
vt 0.8665 0.6344 0.0000
vt 0.8310 0.6684 0.0000
vt 0.8280 0.6578 0.0000
vt 0.8338 0.6561 0.0000
vt 0.8368 0.6668 0.0000
vt 0.8688 0.6269 0.0000
vt 0.8321 0.6504 0.0000
vt 0.8287 0.6400 0.0000
vt 0.8395 0.6723 0.0000
vt 0.9322 0.9105 0.0000
vt 0.9366 0.6767 0.0000
vt 0.9077 0.9172 0.0000
vt 0.9097 0.7696 0.0000
vt 0.9112 0.7664 0.0000
vt 0.9145 0.6042 0.0000
vt 0.9258 0.9004 0.0000
vt 0.9308 0.6445 0.0000
vt 0.9954 0.6347 0.0000
vt 0.9940 0.9229 0.0000
vt 0.9076 0.9143 0.0000
vt 0.9094 0.7668 0.0000
vt 0.9105 0.7666 0.0000
vt 0.9146 0.5840 0.0000
vt 0.9920 0.6553 0.0000
vt 0.9955 0.9113 0.0000
vt 0.9183 0.9226 0.0000
vt 0.9197 0.6343 0.0000
vt 1.0001 0.6458 0.0000
vt 0.9951 0.9018 0.0000
vt 0.9075 0.9464 0.0000
vt 0.9108 0.7842 0.0000
vt 0.9098 0.7379 0.0000
vt 0.9116 0.5904 0.0000
vt 0.9980 0.6779 0.0000
vt 0.9936 0.9116 0.0000
vt 0.9262 0.9122 0.0000
vt 0.9227 0.6562 0.0000
vt 0.9059 0.9692 0.0000
vt 0.9100 0.7866 0.0000
vt 0.9101 0.7408 0.0000
vt 0.9122 0.5932 0.0000
# 222 texture coords

g Window
usemtl 01___Default
s 2
f 1/1/1 2/2/1 3/3/1 4/4/1 
s 4
f 5/5/2 6/6/2 7/7/2 8/8/2 
s 8
f 9/9/3 10/10/3 11/11/3 12/12/3 
s 16
f 13/13/4 14/14/4 15/15/4 16/16/4 
s 32
f 17/17/5 18/18/5 19/19/5 20/20/5 
s 64
f 21/21/6 22/22/6 23/23/6 24/24/6 
s 2
f 25/25/1 26/26/1 27/27/1 28/28/1 
f 29/29/1 30/30/1 31/31/1 32/32/1 
s 4
f 33/33/2 34/34/2 35/35/2 36/36/2 
f 37/37/2 38/38/2 39/39/2 40/40/2 
s 16
f 18/41/4 41/42/4 42/43/4 19/44/4 
f 12/45/4 43/46/4 44/47/4 9/48/4 
s 64
f 10/10/6 45/49/6 46/50/6 11/11/6 
f 20/20/6 47/51/6 48/52/6 17/17/6 
s 8
f 49/53/3 50/54/3 51/55/3 52/56/3 
f 53/57/3 54/58/3 55/59/3 56/60/3 
s 16
f 8/61/4 57/62/4 58/63/4 5/64/4 
f 2/65/4 59/66/4 60/67/4 3/68/4 
s 32
f 61/69/5 62/70/5 63/71/5 64/72/5 
f 65/73/5 66/74/5 67/75/5 68/76/5 
s 64
f 6/6/6 69/77/6 70/78/6 7/7/6 
f 4/4/6 71/79/6 72/80/6 1/1/6 
s 16
f 62/81/4 33/82/4 73/83/4 63/84/4 
f 27/85/4 26/86/4 74/87/4 75/88/4 
f 54/89/4 29/90/4 76/91/4 55/92/4 
f 39/93/4 38/94/4 77/95/4 78/96/4 
s 64
f 50/54/6 37/97/6 79/98/6 51/55/6 
f 31/31/6 30/30/6 80/99/6 81/100/6 
f 66/74/6 25/101/6 82/102/6 67/75/6 
f 35/35/6 34/34/6 83/103/6 84/104/6 
s 8
f 52/56/3 51/55/3 10/10/3 9/9/3 
f 56/60/3 55/59/3 12/12/3 11/11/3 
s 16
f 57/62/4 13/13/4 16/16/4 58/63/4 
f 59/66/4 15/15/4 14/14/4 60/67/4 
s 32
f 64/72/5 63/71/5 18/18/5 17/17/5 
f 68/76/5 67/75/5 20/20/5 19/19/5 
s 64
f 69/105/6 85/106/6 86/107/6 70/108/6 
f 71/109/6 87/110/6 88/111/6 72/112/6 
s 16
f 63/84/4 73/83/4 41/42/4 18/41/4 
f 75/88/4 74/87/4 42/43/4 89/113/4 
f 55/92/4 76/91/4 43/46/4 12/45/4 
f 78/96/4 77/95/4 44/47/4 90/114/4 
s 64
f 51/55/6 79/98/6 45/49/6 10/10/6 
f 91/115/6 92/116/6 93/117/6 94/118/6 
f 67/75/6 82/102/6 47/51/6 20/20/6 
f 95/119/6 96/120/6 97/121/6 98/118/6 
s 2
f 54/122/1 53/123/1 30/30/1 29/29/1 
s 4
f 50/124/2 49/125/2 38/38/2 37/37/2 
s 16
f 99/126/4 90/114/4 44/47/4 43/46/4 
s 64
f 100/127/6 101/128/6 46/129/6 45/130/6 
s 16
f 32/131/4 102/132/4 76/91/4 29/90/4 
f 49/133/4 52/134/4 77/95/4 38/94/4 
s 64
f 40/40/6 103/135/6 79/136/6 37/37/6 
f 53/123/6 56/137/6 80/99/6 30/30/6 
s 16
f 102/132/4 99/126/4 43/46/4 76/91/4 
f 52/134/4 9/48/4 44/47/4 77/95/4 
s 64
f 104/119/6 105/118/6 106/138/6 107/139/6 
f 56/60/6 11/11/6 46/50/6 80/140/6 
s 2
f 66/141/1 65/142/1 26/26/1 25/25/1 
s 4
f 62/143/2 61/144/2 34/34/2 33/33/2 
s 16
f 108/145/4 89/113/4 42/43/4 41/42/4 
s 64
f 109/146/6 110/147/6 48/148/6 47/149/6 
s 16
f 36/150/4 111/151/4 73/83/4 33/82/4 
f 65/152/4 68/153/4 74/87/4 26/86/4 
s 64
f 28/28/6 112/154/6 82/155/6 25/25/6 
f 61/144/6 64/156/6 83/103/6 34/34/6 
s 16
f 111/151/4 108/145/4 41/42/4 73/83/4 
f 68/153/4 19/44/4 42/43/4 74/87/4 
s 64
f 113/115/6 114/157/6 115/158/6 116/159/6 
f 64/72/6 17/17/6 48/52/6 83/160/6 
s 2
f 28/28/1 27/27/1 2/2/1 1/1/1 
f 32/32/1 31/31/1 4/4/1 3/3/1 
s 4
f 36/36/2 35/35/2 6/6/2 5/5/2 
f 40/40/2 39/39/2 8/8/2 7/7/2 
s 16
f 90/114/4 99/126/4 14/14/4 13/13/4 
f 89/113/4 108/145/4 16/16/4 15/15/4 
s 64
f 110/161/6 109/162/6 88/111/6 85/163/6 
f 101/164/6 100/165/6 86/166/6 87/110/6 
s 16
f 39/93/4 78/96/4 57/62/4 8/61/4 
f 111/151/4 36/150/4 5/64/4 58/63/4 
f 27/85/4 75/88/4 59/66/4 2/65/4 
f 102/132/4 32/131/4 3/68/4 60/67/4 
s 64
f 35/35/6 84/104/6 69/77/6 6/6/6 
f 103/135/6 40/40/6 7/7/6 70/78/6 
f 31/31/6 81/100/6 71/79/6 4/4/6 
f 112/154/6 28/28/6 1/1/6 72/80/6 
s 16
f 78/96/4 90/114/4 13/13/4 57/62/4 
f 108/145/4 111/151/4 58/63/4 16/16/4 
f 75/88/4 89/113/4 15/15/4 59/66/4 
f 99/126/4 102/132/4 60/67/4 14/14/4 
s 64
f 84/167/6 110/168/6 85/106/6 69/105/6 
f 100/169/6 103/170/6 70/108/6 86/107/6 
f 81/171/6 101/164/6 87/110/6 71/109/6 
f 109/162/6 112/172/6 72/112/6 88/111/6 
s off
f 86/173/2 85/174/2 117/175/2 118/176/2 
f 85/174/5 88/177/5 119/178/5 117/175/5 
f 88/179/1 87/180/1 120/181/1 119/182/1 
f 87/180/3 86/173/3 118/176/3 120/181/3 
f 118/176/2 117/175/2 21/21/2 24/24/2 
f 117/175/5 119/178/5 22/22/5 21/21/5 
f 121/183/1 122/184/1 123/185/1 124/186/1 
f 120/181/3 118/176/3 24/24/3 23/23/3 
f 119/187/7 120/181/7 122/188/7 121/189/7 
f 120/181/3 23/23/3 123/185/3 122/188/3 
f 23/23/8 22/22/8 124/186/8 123/185/8 
f 22/22/5 119/178/5 121/190/5 124/186/5 
f 101/164/3 81/171/3 91/191/3 94/192/3 
f 81/100/2 80/99/2 92/193/2 91/194/2 
f 80/140/5 46/50/5 93/195/5 92/196/5 
f 46/129/9 101/128/9 94/197/9 93/198/9 
f 110/168/5 84/167/5 95/199/5 98/200/5 
f 84/104/1 83/103/1 96/201/1 95/202/1 
f 83/160/3 48/52/3 97/203/3 96/204/3 
f 48/148/2 110/147/2 98/205/2 97/206/2 
f 103/170/3 100/169/3 105/207/3 104/208/3 
f 100/127/2 45/130/2 106/209/2 105/210/2 
f 45/49/5 79/98/5 107/211/5 106/212/5 
f 79/136/1 103/135/1 104/213/1 107/214/1 
f 112/172/5 109/162/5 114/215/5 113/216/5 
f 109/146/9 47/149/9 115/217/9 114/218/9 
f 47/51/3 82/102/3 116/219/3 115/220/3 
f 82/155/2 112/154/2 113/221/2 116/222/2 
# 122 polygons

